<svg fill="none" xmlns="http://www.w3.org/2000/svg" viewBox="0 0 557 220">
  <mask id="OSEcZVCcoJPTb" style="mask-type:alpha" maskUnits="userSpaceOnUse" x="0" y="16" width="557" height="204">
    <path d="M23.089 108.51L0 118.784V219.6h556.518V43.83l-34.606 4.966A19.997 19.997 0 00511.079 54l-21.615 20.25c-7.874 7.378-20.181 7.18-27.813-.449l-13.916-13.908a30 30 0 00-35.891-4.941l-8.6 4.827c-7.736 4.342-17.53 1.059-21.085-7.069l-12.055-27.558c-4.755-10.868-19.648-12.177-26.226-2.304a39.998 39.998 0 01-38.934 17.422l-13.356-1.904a20.001 20.001 0 00-20.448 10.345l-25.273 47.115a20 20 0 01-19.889 10.418l-31.403-3.579a40.005 40.005 0 00-33.985 12.681l-1.706 1.857a79.997 79.997 0 01-46.734 24.944l-10.244 1.578a39.995 39.995 0 00-13.978 4.932l-.727.421c-10.3 5.974-23.506 1.68-28.324-9.21l-9.367-21.177c-4.476-10.116-16.314-14.679-26.421-10.182z" fill="url(#OSEcZVCcoJPTa)"/>
  </mask>
  <g mask="url(#OSEcZVCcoJPTb)">
    <path opacity=".6" d="M23.089 108.51L0 118.784V219.6h556.518V43.83l-34.606 4.966A19.997 19.997 0 00511.079 54l-21.615 20.25c-7.874 7.378-20.181 7.18-27.813-.449l-13.916-13.908a30 30 0 00-35.891-4.941l-8.6 4.827c-7.736 4.342-17.53 1.059-21.085-7.069l-12.055-27.558c-4.755-10.868-19.648-12.177-26.226-2.304a39.998 39.998 0 01-38.934 17.422l-13.356-1.904a20.001 20.001 0 00-20.448 10.345l-25.273 47.115a20 20 0 01-19.889 10.418l-31.403-3.579a40.005 40.005 0 00-33.985 12.681l-1.706 1.857a79.997 79.997 0 01-46.734 24.944l-10.244 1.578a39.995 39.995 0 00-13.978 4.932l-.727.421c-10.3 5.974-23.506 1.68-28.324-9.21l-9.367-21.177c-4.476-10.116-16.314-14.679-26.421-10.182z" fill="#1C1C1C"/>
  </g>
  <defs>
    <radialGradient id="OSEcZVCcoJPTa" cx="0" cy="0" r="1" gradientUnits="userSpaceOnUse" gradientTransform="scale(273.042 119.495) rotate(90 .34 .678)">
      <stop stop-opacity=".08"/>
      <stop offset="1" stop-opacity="0"/>
    </radialGradient>
  </defs>
</svg>
