<svg fill="none" xmlns="http://www.w3.org/2000/svg" viewBox="0 0 52 74">
  <mask id="rWX-5N0aI9Chb" style="mask-type:alpha" maskUnits="userSpaceOnUse" x="0" y="0" width="51" height="73">
    <path fill-rule="evenodd" clip-rule="evenodd" d="M0 15.408C0 11.475.378 7.631 1.1 3.91 1.523 1.737 3.733.466 5.871 1.04l21.266 5.697c2.127.57 3.365 2.752 3.093 4.936a30.29 30.29 0 00-.23 3.736c0 12.25 7.343 22.786 17.867 27.446 1.986.88 3.217 3.018 2.655 5.116l-5.71 21.307c-.576 2.152-2.806 3.43-4.904 2.684C16.651 63.7 0 41.498 0 15.409z" fill="url(#rWX-5N0aI9Cha)"/>
  </mask>
  <g mask="url(#rWX-5N0aI9Chb)">
    <path fill-rule="evenodd" clip-rule="evenodd" d="M0 15.408C0 11.475.378 7.631 1.1 3.91 1.523 1.737 3.733.466 5.871 1.04l21.266 5.697c2.127.57 3.365 2.752 3.093 4.936a30.29 30.29 0 00-.23 3.736c0 12.25 7.343 22.786 17.867 27.446 1.986.88 3.217 3.018 2.655 5.116l-5.71 21.307c-.576 2.152-2.806 3.43-4.904 2.684C16.651 63.7 0 41.498 0 15.409z" fill="#B1E3FF"/>
  </g>
  <defs>
    <linearGradient id="rWX-5N0aI9Cha" x1="51.533" y1="0" x2="27.132" y2="29.408" gradientUnits="userSpaceOnUse">
      <stop/>
      <stop offset="1"/>
    </linearGradient>
  </defs>
</svg>
