<svg fill="none" xmlns="http://www.w3.org/2000/svg" viewBox="0 0 29 34">
  <mask id="XOnLi0eyPc1Xb" style="mask-type:alpha" maskUnits="userSpaceOnUse" x="1" y="0" width="28" height="32">
    <path fill-rule="evenodd" clip-rule="evenodd" d="M13.13 29.902c1.059 1.834 3.357 2.495 5.355 1.792a29.812 29.812 0 015.975-1.431c2.19-.291 3.989-2.054 3.989-4.263V4c0-2.21-1.793-4.014-3.998-3.869a59.657 59.657 0 00-20.763 5.2c-2.053.932-2.757 3.442-1.63 5.394L13.13 29.902z" fill="url(#XOnLi0eyPc1Xa)"/>
  </mask>
  <g mask="url(#XOnLi0eyPc1Xb)">
    <path fill-rule="evenodd" clip-rule="evenodd" d="M13.13 29.902c1.059 1.834 3.357 2.495 5.355 1.792a29.812 29.812 0 015.975-1.431c2.19-.291 3.989-2.054 3.989-4.263V4c0-2.21-1.793-4.014-3.998-3.869a59.657 59.657 0 00-20.763 5.2c-2.053.932-2.757 3.442-1.63 5.394L13.13 29.902z" fill="#A8C5DA"/>
  </g>
  <defs>
    <linearGradient id="XOnLi0eyPc1Xa" x1="28.449" y1="0" x2="17.978" y2="15.371" gradientUnits="userSpaceOnUse">
      <stop/>
      <stop offset="1"/>
    </linearGradient>
  </defs>
</svg>
