<svg fill="none" xmlns="http://www.w3.org/2000/svg" viewBox="0 0 43 43">
  <mask id="kuLcoAuubpkcb" style="mask-type:alpha" maskUnits="userSpaceOnUse" x="1" y="1" width="40" height="41">
    <path fill-rule="evenodd" clip-rule="evenodd" d="M29.274 3.48C28.166 1.56 25.7.897 23.864 2.14 13.69 9.028 5.743 18.957 1.327 30.622c-.8 2.111.478 4.39 2.659 4.974l21.398 5.733c2.04.547 4.13-.603 5.049-2.505a30.12 30.12 0 018.56-10.607c1.73-1.353 2.39-3.765 1.292-5.667L29.274 3.48z" fill="url(#kuLcoAuubpkca)"/>
  </mask>
  <g mask="url(#kuLcoAuubpkcb)">
    <path fill-rule="evenodd" clip-rule="evenodd" d="M29.274 3.48C28.166 1.56 25.7.897 23.864 2.14 13.69 9.028 5.743 18.957 1.327 30.622c-.8 2.111.478 4.39 2.659 4.974l21.398 5.733c2.04.547 4.13-.603 5.049-2.505a30.12 30.12 0 018.56-10.607c1.73-1.353 2.39-3.765 1.292-5.667L29.274 3.48z" fill="#A1E3CB"/>
  </g>
  <defs>
    <linearGradient id="kuLcoAuubpkca" x1="42.268" y1="0" x2="29.762" y2="21.388" gradientUnits="userSpaceOnUse">
      <stop/>
      <stop offset="1"/>
    </linearGradient>
  </defs>
</svg>
