<svg fill="none" xmlns="http://www.w3.org/2000/svg" viewBox="0 0 75 120">
  <mask id="rcV0uOn4y8B8b" style="mask-type:alpha" maskUnits="userSpaceOnUse" x="0" y="0" width="75" height="120">
    <path fill-rule="evenodd" clip-rule="evenodd" d="M.794 115.29c-.436 1.626.55 3.299 2.202 3.614a60.316 60.316 0 0011.304 1.063c33.138 0 60-26.863 60-60 0-31.42-24.152-57.2-54.905-59.786C17.706.039 16.3 1.405 16.3 3.1v24.124c0 1.58 1.231 2.873 2.791 3.124 14.292 2.294 25.21 14.681 25.21 29.62 0 16.568-13.432 30-30 30-1.254 0-2.488-.078-3.701-.227-1.594-.196-3.158.737-3.573 2.288L.794 115.29z" fill="url(#rcV0uOn4y8B8a)"/>
  </mask>
  <g mask="url(#rcV0uOn4y8B8b)" fill-rule="evenodd" clip-rule="evenodd">
    <path d="M.794 115.29c-.436 1.626.55 3.299 2.202 3.614a60.316 60.316 0 0011.304 1.063c33.138 0 60-26.863 60-60 0-31.42-24.152-57.2-54.905-59.786C17.706.039 16.3 1.405 16.3 3.1v24.124c0 1.58 1.231 2.873 2.791 3.124 14.292 2.294 25.21 14.681 25.21 29.62 0 16.568-13.432 30-30 30-1.254 0-2.488-.078-3.701-.227-1.594-.196-3.158.737-3.573 2.288L.794 115.29z" fill="url(#rcV0uOn4y8B8c)"/>
    <path d="M.794 115.29c-.436 1.626.55 3.299 2.202 3.614a60.316 60.316 0 0011.304 1.063c33.138 0 60-26.863 60-60 0-31.42-24.152-57.2-54.905-59.786C17.706.039 16.3 1.405 16.3 3.1v24.124c0 1.58 1.231 2.873 2.791 3.124 14.292 2.294 25.21 14.681 25.21 29.62 0 16.568-13.432 30-30 30-1.254 0-2.488-.078-3.701-.227-1.594-.196-3.158.737-3.573 2.288L.794 115.29z" fill="#1C1C1C" style="mix-blend-mode:screen"/>
  </g>
  <defs>
    <linearGradient id="rcV0uOn4y8B8a" x1="74.3" y1="0" x2="33.673" y2="43.067" gradientUnits="userSpaceOnUse">
      <stop/>
      <stop offset="1"/>
    </linearGradient>
    <linearGradient id="rcV0uOn4y8B8c" x1="37.15" y1="0" x2="37.15" y2="119.967" gradientUnits="userSpaceOnUse">
      <stop/>
      <stop offset="1" stop-color="#1C1C1C" stop-opacity=".6"/>
      <stop offset="1" stop-opacity=".6"/>
    </linearGradient>
  </defs>
</svg>
