<svg fill="none" xmlns="http://www.w3.org/2000/svg" viewBox="0 0 16 16">
  <path d="M7.333 8a.667.667 0 101.334 0 .667.667 0 00-1.334 0zm0 4.667a.667.667 0 101.334 0 .667.667 0 00-1.334 0zm0-9.334a.667.667 0 101.334 0 .667.667 0 00-1.334 0z" fill="#131313"/>
  <path d="M7.333 8a.667.667 0 101.334 0 .667.667 0 00-1.334 0zm0 4.667a.667.667 0 101.334 0 .667.667 0 00-1.334 0zm0-9.334a.667.667 0 101.334 0 .667.667 0 00-1.334 0z" stroke="#734A00" stroke-width="1.25" stroke-linecap="round" stroke-linejoin="round"/>
</svg>
