<svg data-name="Layer 1" xmlns="http://www.w3.org/2000/svg" xmlns:xlink="http://www.w3.org/1999/xlink" viewBox="0 0 250 53.75">
  <defs>
    <linearGradient id="Bn7vA7Op4lDwa" x1="31.18" y1="563.73" x2="62.19" y2="526.78" gradientTransform="matrix(1 0 0 -1 0 573.86)" gradientUnits="userSpaceOnUse">
      <stop offset="0" stop-color="#20562b"/>
      <stop offset=".26" stop-color="#336d30"/>
      <stop offset=".81" stop-color="#65aa3e"/>
      <stop offset="1" stop-color="#77c044"/>
    </linearGradient>
    <linearGradient id="Bn7vA7Op4lDwb" x1="32.58" y1="563.7" x2="62.31" y2="528.27" gradientTransform="matrix(1 0 0 -1 0 573.86)" gradientUnits="userSpaceOnUse">
      <stop offset="0" stop-color="#20562b"/>
      <stop offset=".19" stop-color="#316b30"/>
      <stop offset=".74" stop-color="#63a83e"/>
      <stop offset="1" stop-color="#77c044"/>
    </linearGradient>
    <linearGradient id="Bn7vA7Op4lDwc" x1="36.39" y1="525.54" x2="1.8" y2="574.93" xlink:href="#Bn7vA7Op4lDwa"/>
    <linearGradient id="Bn7vA7Op4lDwd" x1="34.6" y1="525.41" x2="2.29" y2="571.55" gradientTransform="matrix(1 0 0 -1 0 573.86)" gradientUnits="userSpaceOnUse">
      <stop offset="0" stop-color="#20562b"/>
      <stop offset=".19" stop-color="#316b30"/>
      <stop offset=".74" stop-color="#63a83e"/>
      <stop offset="1" stop-color="#77c044"/>
    </linearGradient>
  </defs>
  <path d="M88.03 43.6c0-1.06.79-1.79 1.77-1.79.68 0 1.11.33 1.37.73l-.44.23c-.18-.29-.52-.5-.93-.5-.7 0-1.24.55-1.24 1.33s.54 1.33 1.24 1.33c.41 0 .75-.21.93-.5l.44.23c-.27.4-.7.73-1.37.73-.99 0-1.77-.73-1.77-1.79zm6.04-1.79c1.03 0 1.74.76 1.74 1.79s-.71 1.79-1.74 1.79-1.74-.76-1.74-1.79.71-1.79 1.74-1.79zm0 .46c-.74 0-1.21.57-1.21 1.33s.47 1.33 1.21 1.33 1.21-.57 1.21-1.33-.48-1.33-1.21-1.33zm5.58 3.06l-1.91-2.66v2.66h-.52v-3.46h.53l1.88 2.59v-2.59h.52v3.46h-.5zm4.48 0l-1.91-2.66v2.66h-.52v-3.46h.53l1.88 2.59v-2.59h.52v3.46h-.5zm2.05 0v-3.46h2.32v.46h-1.81v1.01h1.77v.46h-1.77v1.08h1.81v.46h-2.32zm3.6-1.73c0-1.06.79-1.79 1.77-1.79.68 0 1.11.33 1.37.73l-.44.23c-.18-.29-.52-.5-.93-.5-.7 0-1.24.55-1.24 1.33s.54 1.33 1.24 1.33c.41 0 .75-.21.93-.5l.44.23c-.27.4-.7.73-1.37.73-.99 0-1.77-.73-1.77-1.79zm5.29 1.73v-3H114v-.46h2.66v.46h-1.07v3h-.52zm2.9 0v-3.46h2.32v.46h-1.81v1.01h1.77v.46h-1.77v1.08h1.81v.46h-2.32zm3.75 0v-3.46h1.23c1.08 0 1.8.74 1.8 1.73s-.72 1.73-1.8 1.73h-1.23zm.52-.46h.72c.8 0 1.26-.57 1.26-1.27s-.45-1.28-1.26-1.28h-.72v2.55zm5.89-1.27c0-1.06.79-1.79 1.77-1.79.68 0 1.11.33 1.37.73l-.44.23c-.18-.29-.52-.5-.93-.5-.7 0-1.24.55-1.24 1.33s.54 1.33 1.24 1.33c.41 0 .75-.21.93-.5l.44.23c-.27.4-.7.73-1.37.73-.99 0-1.77-.73-1.77-1.79zm6.89 1.73l-.28-.72h-1.7l-.28.72h-.57l1.38-3.46h.65l1.38 3.46h-.57zm-1.13-3.01l-.7 1.83h1.4l-.7-1.83zm4.89 3.01l-.82-1.33h-.65v1.33h-.52v-3.46h1.46c.66 0 1.11.43 1.11 1.06s-.42.95-.86 1.01l.89 1.39h-.6zm-.6-3h-.87v1.21h.87c.37 0 .64-.24.64-.61s-.27-.61-.64-.61zm2.59 3v-3.46h2.32v.46h-1.81v1.01h1.77v.46h-1.77v1.08h1.81v.46h-2.32zm8.34 0l-.28-.72h-1.7l-.28.72h-.57l1.38-3.46h.65l1.38 3.46h-.57zm-1.13-3.01l-.7 1.83h1.4l-.7-1.83zm5.33 3.01l-1.91-2.66v2.66h-.52v-3.46h.53l1.88 2.59v-2.59h.52v3.46h-.5zm3.04 0v-1.45L155 41.87h.6l1.02 1.55 1.01-1.55h.6l-1.35 2.01v1.45h-.52zm5.71 0l-.72-2.67-.72 2.67h-.56l-.99-3.46h.58l.72 2.78.76-2.78h.42l.75 2.78.72-2.78h.58l-.99 3.46h-.56zm5.19 0v-1.55h-1.91v1.55h-.52v-3.46h.52v1.45h1.91v-1.45h.52v3.46h-.52zm2.06 0v-3.46h2.32v.46h-1.81v1.01h1.77v.46h-1.77v1.08h1.81v.46h-2.32zm5.74 0l-.83-1.33h-.65v1.33h-.52v-3.46h1.46c.66 0 1.11.43 1.11 1.06s-.42.95-.86 1.01l.89 1.39h-.6zm-.6-3h-.87v1.21h.87c.37 0 .64-.24.64-.61s-.27-.61-.64-.61zm2.59 3v-3.46h2.32v.46h-1.81v1.01h1.77v.46h-1.77v1.08h1.81v.46h-2.32z" fill="#20562b"/>
  <path d="M163.16 34.48l1.09-2.15c1.89 1.85 5.24 3.21 8.71 3.21 4.94 0 7.09-2.07 7.09-4.68 0-7.24-16.26-2.79-16.26-12.56 0-3.89 3.02-7.24 9.73-7.24 2.98 0 6.07.87 8.19 2.34l-.94 2.23c-2.26-1.47-4.9-2.19-7.24-2.19-4.83 0-6.98 2.15-6.98 4.79 0 7.24 16.26 2.87 16.26 12.49 0 3.89-3.09 7.21-9.85 7.21-3.96 0-7.85-1.4-9.81-3.43zm41.46-16.64l-9.92 22.22c-1.66 3.89-3.77 5.13-6.6 5.13-1.85 0-3.62-.6-4.83-1.81l1.24-2c.98.98 2.19 1.51 3.62 1.51 1.77 0 2.98-.83 4.11-3.32l.87-1.92-8.87-19.81h2.79l7.47 16.86 7.47-16.86h2.64zm22.03 8.34v11.51h-2.68V26.45c0-4.19-2.19-6.34-5.96-6.34-4.26 0-6.94 2.64-6.94 7.17v10.41h-2.68V17.85h2.57v3.66c1.43-2.41 4.11-3.81 7.54-3.81 4.83 0 8.15 2.79 8.15 8.49zm5.36 1.58c0-5.92 4.3-10.07 10.22-10.07 3.36 0 6.19 1.32 7.77 3.92l-2 1.36c-1.36-2-3.47-2.94-5.77-2.94-4.34 0-7.51 3.09-7.51 7.73s3.17 7.73 7.51 7.73c2.3 0 4.41-.91 5.77-2.9l2 1.36c-1.58 2.57-4.41 3.92-7.77 3.92-5.92 0-10.22-4.19-10.22-10.11zm-130.5-16.48L90 37.69h-4.83L73.63 11.28h5.32l8.79 20.37 8.87-20.37h4.9zm1.89.11c0-1.58 1.28-2.83 3.02-2.83s3.02 1.17 3.02 2.72c0 1.66-1.24 2.94-3.02 2.94s-3.02-1.24-3.02-2.83zm.64 6.15h4.72v20.15h-4.72V17.54zm23.01 19.05c-1.13.91-2.83 1.36-4.53 1.36-4.41 0-6.94-2.34-6.94-6.79v-9.7h-3.32v-3.77h3.32v-4.6h4.72v4.6h5.39v3.77h-5.39v9.58c0 1.96.98 3.02 2.79 3.02.98 0 1.92-.26 2.64-.83l1.32 3.36zm20.75-10.71v11.81h-4.45v-2.45c-1.13 1.74-3.32 2.72-6.34 2.72-4.6 0-7.51-2.53-7.51-6.04s2.26-6 8.37-6h5.21v-.3c0-2.75-1.66-4.38-5.02-4.38-2.26 0-4.6.75-6.11 2l-1.85-3.43c2.15-1.66 5.28-2.49 8.53-2.49 5.81 0 9.17 2.75 9.17 8.56zm-4.72 5.51v-2.34h-4.87c-3.21 0-4.07 1.21-4.07 2.68 0 1.7 1.43 2.79 3.85 2.79s4.3-1.06 5.09-3.13zM153.83 9.7h4.72v27.99h-4.72v-28z" fill="#162517"/>
  <path data-name="S" d="M35.42 49.73c-.09-.06-.15-.19-.09-.31.18-.46.63-.8 1.17-.8.33 0 .64.12.9.39 6.3 6.31 17.01 1.67 17.01-6.03 0-8.6-18.68-13.43-22.51-20.81C25.54 10.73 41.99-4.62 56.62 5.89c.08.06.1.14.08.21-.04.13-.19.16-.28.09-8.96-5.32-14.71 1.27-14.71 6.97 0 11.51 20.69 11.09 23.48 22.67 2.85 12.03-15.88 24.56-29.75 13.91z" fill="url(#Bn7vA7Op4lDwa)"/>
  <path data-name="S" d="M63.45 42.7c-1.36 3.05-4.02 5.8-7.4 7.64-2.73 1.48-5.89 2.37-9.15 2.36.96-.33 1.89-.72 2.77-1.18.12-.06.24-.13.36-.19.22-.12.43-.24.65-.37 3.3-1.98 5.85-4.84 7.09-7.94.88-2.21 1.09-4.53.46-6.79-.4-1.41-1.09-2.61-2-3.67-2.38-2.76-6.2-4.51-10.19-6.32-4.08-1.85-8.42-3.78-10.66-7.1-.92-1.36-1.48-2.94-1.56-4.81-.06-1.65.3-3.37 1.05-4.93.68-1.41 1.69-2.7 3.02-3.65.52-.34 1.06-.66 1.62-.93 1.96-.98 4.18-1.55 6.5-1.59.74-.01 1.49.03 2.26.14-1.17.23-2.23.68-3.15 1.3-1.36.9-2.43 2.15-3.17 3.52-.81 1.52-1.25 3.22-1.25 4.88 0 1.87.5 3.47 1.36 4.88 2.11 3.42 6.37 5.53 10.36 7.54 3.91 1.97 7.66 3.87 9.92 6.73.87 1.1 1.51 2.32 1.85 3.75.55 2.27.24 4.58-.73 6.75z" fill="url(#Bn7vA7Op4lDwb)"/>
  <path data-name="V" d="M37.17 31.54l-7.8 21.48c-.18.43-.6.73-1.1.73-.45 0-.84-.25-1.04-.62L3.6 2.37 1.22 1.6C.64 1.42.19.98.02.53-.07.27.11 0 .39 0h11c2.49 0 4.75 1.45 5.81 3.71l15.6 33.52 1.73-4.76c.28-.77.96-1.2 1.68-1.2.36 0 .7.11.95.27z" fill="url(#Bn7vA7Op4lDwc)"/>
  <path data-name="V" d="M32.43 38.27l-1.49 4.1c-.06.16-.28.16-.34.01l-2.76-5.93L13.06 4.73a6.413 6.413 0 00-5.81-3.71H4.18c-.21 0-.26.3-.06.36.27.09.49.29.61.54l23.61 50.72s.03.04.05.04c.02.01.05.02.08.02s.06 0 .09-.03c.02-.01.04-.04.06-.06 1-2.75 2.01-5.55 2.95-8.14.75-2.1 1.47-4.07 2.09-5.8.04-.1-.02-.21-.12-.24l-.88-.29c-.09-.03-.19.02-.23.12z" fill="url(#Bn7vA7Op4lDwd)"/>
</svg>
