<svg fill="none" xmlns="http://www.w3.org/2000/svg" viewBox="0 0 559 137">
  <path d="M1 103.298l13.15-5.827c9.31-4.125 13.964-6.188 18.32-6.136a20 20 0 0113.011 5.014c3.264 2.885 5.33 7.538 9.464 16.844l4.656 10.483c.253.569.38.853.489 1.084 4.924 10.365 17.541 14.469 27.622 8.986.224-.122.493-.278 1.032-.589v0l.395-.227a40 40 0 0113.521-4.753l.45-.069 8.647-1.327c1.435-.22 2.153-.33 2.85-.449a80.002 80.002 0 0044.308-23.574c.489-.511.981-1.045 1.965-2.112v0c.705-.763 1.057-1.145 1.4-1.5a40 40 0 0132.253-12.005c.491.044 1.007.102 2.039.22l22.369 2.538c7.769.882 11.653 1.322 15.153.451a19.996 19.996 0 008.355-4.37c2.713-2.378 4.567-5.82 8.274-12.703l19.113-35.486c2.205-4.093 3.307-6.14 4.685-7.756a20 20 0 0113.811-6.978c2.12-.15 4.421.176 9.024.83l8.64 1.227.026.003a40 40 0 0038.851-17.354l.015-.022v0l.013-.02c6.585-9.83 21.428-8.523 26.193 2.307l.009.022 10.366 23.598c1.554 3.538 2.331 5.306 3.265 6.6a15 15 0 0016.558 5.553c1.526-.468 3.212-1.411 6.585-3.296v0c4.788-2.677 7.183-4.016 9.509-4.852a30 30 0 0127.553 3.789c2.013 1.433 3.958 3.369 7.846 7.239l3.467 3.45c6.008 5.981 9.012 8.971 12.34 10.466a19.998 19.998 0 0015.8.255c3.374-1.387 6.473-4.279 12.671-10.062l12.262-11.442c2.73-2.548 4.096-3.822 5.64-4.808a20.007 20.007 0 014.382-2.098c1.736-.584 3.585-.848 7.282-1.377l30.889-4.415" stroke="url(#TqRHwPbnsqj9a)" stroke-linecap="round"/>
  <path d="M1 103.298l13.15-5.827c9.31-4.125 13.964-6.188 18.32-6.136a20 20 0 0113.011 5.014c3.264 2.885 5.33 7.538 9.464 16.844l4.656 10.483c.253.569.38.853.489 1.084 4.924 10.365 17.541 14.469 27.622 8.986.224-.122.493-.278 1.032-.589v0l.395-.227a40 40 0 0113.521-4.753l.45-.069 8.647-1.327c1.435-.22 2.153-.33 2.85-.449a80.002 80.002 0 0044.308-23.574c.489-.511.981-1.045 1.965-2.112v0c.705-.763 1.057-1.145 1.4-1.5a40 40 0 0132.253-12.005c.491.044 1.007.102 2.039.22l22.369 2.538c7.769.882 11.653 1.322 15.153.451a19.996 19.996 0 008.355-4.37c2.713-2.378 4.567-5.82 8.274-12.703l19.113-35.486c2.205-4.093 3.307-6.14 4.685-7.756a20 20 0 0113.811-6.978c2.12-.15 4.421.176 9.024.83l8.64 1.227.026.003a40 40 0 0038.851-17.354l.015-.022v0l.013-.02c6.585-9.83 21.428-8.523 26.193 2.307l.009.022 10.366 23.598c1.554 3.538 2.331 5.306 3.265 6.6a15 15 0 0016.558 5.553c1.526-.468 3.212-1.411 6.585-3.296v0c4.788-2.677 7.183-4.016 9.509-4.852a30 30 0 0127.553 3.789c2.013 1.433 3.958 3.369 7.846 7.239l3.467 3.45c6.008 5.981 9.012 8.971 12.34 10.466a19.998 19.998 0 0015.8.255c3.374-1.387 6.473-4.279 12.671-10.062l12.262-11.442c2.73-2.548 4.096-3.822 5.64-4.808a20.007 20.007 0 014.382-2.098c1.736-.584 3.585-.848 7.282-1.377l30.889-4.415" stroke="#1C1C1C" stroke-linecap="round" style="mix-blend-mode:screen"/>
  <defs>
    <linearGradient id="TqRHwPbnsqj9a" x1="3.623" y1="162.635" x2="557.518" y2="162.635" gradientUnits="userSpaceOnUse">
      <stop stop-opacity=".4"/>
      <stop offset="1"/>
    </linearGradient>
  </defs>
</svg>
