<svg fill="none" xmlns="http://www.w3.org/2000/svg" viewBox="0 0 18 18">
  <g clip-path="url(#b2HLmFeZdCYla)" fill-rule="evenodd" clip-rule="evenodd" fill="#64748B">
    <path d="M9 2.25a6.75 6.75 0 100 13.5 6.75 6.75 0 000-13.5zM.75 9a8.25 8.25 0 1116.5 0A8.25 8.25 0 01.75 9z"/>
    <path d="M6.598 10.047a.75.75 0 00-1.198.903l.6-.45-.6.45v.001l.002.001.002.003.005.007.016.02.053.065a5.21 5.21 0 00.878.81c.598.435 1.5.893 2.644.893 1.144 0 2.046-.458 2.644-.893a5.21 5.21 0 00.879-.81l.052-.065.016-.02.005-.007.002-.003.001-.001S12.6 10.95 12 10.5l.6.45a.75.75 0 00-1.198-.903l-.003.004a2.692 2.692 0 01-.146.164c-.11.116-.276.272-.491.428-.433.315-1.031.607-1.762.607-.73 0-1.33-.292-1.762-.607a3.707 3.707 0 01-.612-.56 1.314 1.314 0 01-.025-.032l-.003-.004zM6 6.75A.75.75 0 016.75 6h.008a.75.75 0 010 1.5H6.75A.75.75 0 016 6.75zm4.5 0a.75.75 0 01.75-.75h.008a.75.75 0 010 1.5h-.008a.75.75 0 01-.75-.75z"/>
  </g>
  <defs>
    <clipPath id="b2HLmFeZdCYla">
      <path fill="#fff" d="M0 0h18v18H0z"/>
    </clipPath>
  </defs>
</svg>
